<svg version="1.1" id="Calque_1" xmlns="http://www.w3.org/2000/svg" xmlns:xlink="http://www.w3.org/1999/xlink" x="0px" y="0px"
	 width="100%" height="100%" preserveAspectRatio="xMidYMin meet" style="border: 1px solid #cccccc;" viewBox="0 0 87.888 61.073" enable-background="new 0 0 87.888 61.073" xml:space="preserve">
<g>
	<polygon fill="#9C9E9F" points="86.883,38.837 86.644,38.597 86.644,38.356 86.404,38.116 86.165,38.116 85.924,38.116 
		85.684,38.116 85.444,37.877 85.204,37.877 85.204,37.637 84.964,37.397 84.964,37.157 84.724,37.157 84.724,36.917 84.724,36.677 
		84.964,36.677 84.964,36.437 84.964,36.196 84.964,35.957 84.724,36.196 84.724,36.437 84.484,36.437 84.245,36.437 84.245,36.677 
		84.004,36.677 83.764,36.677 84.004,36.917 84.004,37.157 84.245,37.157 84.245,37.397 84.004,37.397 84.004,37.637 84.004,37.877 
		83.764,37.877 83.524,37.877 83.524,38.116 83.284,38.116 83.284,38.356 83.284,38.597 83.044,38.597 83.044,38.356 83.044,38.597 
		83.044,38.837 83.044,39.077 83.284,39.077 83.284,39.316 83.524,39.316 83.524,39.557 83.764,39.557 84.004,39.557 84.004,39.796 
		84.245,39.796 84.484,39.796 84.484,40.036 84.724,40.036 84.724,40.276 84.964,40.517 84.724,40.517 84.724,40.757 84.484,40.757 
		84.245,40.757 84.004,40.997 83.764,40.997 83.764,41.236 83.524,41.236 83.524,41.477 83.284,41.477 83.284,41.716 83.044,41.716 
		83.044,41.956 82.804,41.956 82.804,42.196 82.565,42.196 82.325,42.196 82.325,42.437 82.084,42.437 82.084,42.677 82.084,42.917 
		81.844,42.917 81.604,42.917 81.364,43.156 81.364,43.396 81.125,43.396 81.125,43.636 81.125,43.876 80.884,43.876 80.884,44.116 
		80.645,44.116 80.645,44.356 80.405,44.356 80.405,44.597 80.405,44.837 80.405,45.076 80.165,45.076 79.924,45.076 79.684,45.316 
		79.445,45.316 79.445,45.556 79.205,45.556 79.205,45.796 78.964,46.036 78.964,46.276 78.725,46.276 78.725,46.517 78.485,46.517 
		78.245,46.756 78.004,46.756 78.004,46.517 77.764,46.517 77.525,46.517 77.285,46.517 77.045,46.517 76.805,46.517 76.565,46.517 
		76.325,46.517 76.084,46.517 75.844,46.517 75.605,46.517 75.365,46.517 75.365,46.276 75.365,46.517 75.125,46.517 75.365,46.517 
		75.125,46.517 74.885,46.517 74.885,46.276 74.645,46.276 74.405,46.276 74.405,46.036 74.165,46.036 73.925,46.036 73.685,46.036 
		73.446,45.796 73.446,45.556 73.206,45.556 72.965,45.556 72.725,45.556 72.725,45.796 72.485,45.796 72.245,45.796 72.245,45.556 
		72.485,45.556 72.725,45.556 72.725,45.316 72.965,45.076 72.725,45.076 72.965,45.076 72.965,44.837 73.206,44.837 73.446,44.837 
		73.446,45.076 73.685,45.076 73.685,44.837 73.925,44.837 73.925,44.597 74.165,44.597 74.405,44.597 74.645,44.597 74.645,44.837 
		74.885,44.837 75.125,44.837 75.365,44.837 75.365,45.076 75.605,45.076 75.605,44.837 75.365,44.837 75.365,44.597 75.605,44.356 
		75.605,44.116 75.844,44.116 76.084,44.116 76.084,44.356 76.325,44.356 76.565,44.356 76.805,44.356 76.805,44.597 77.045,44.597 
		76.805,44.356 76.805,44.116 76.565,43.876 76.565,43.636 76.325,43.636 76.565,43.636 76.565,43.396 76.805,43.396 77.045,43.396 
		77.285,43.396 77.525,43.396 77.525,43.636 77.764,43.636 77.764,43.396 77.764,43.156 77.525,43.156 77.525,42.917 77.285,42.677 
		77.045,42.677 76.805,42.677 76.805,42.437 76.565,42.196 76.325,42.196 76.084,42.196 76.084,42.437 76.084,42.677 75.844,42.677 
		75.605,42.677 75.365,42.677 75.125,42.677 75.125,42.437 74.885,42.677 74.645,42.677 74.645,42.437 74.405,42.437 74.165,42.437 
		73.925,42.437 73.925,42.677 73.685,42.677 73.446,42.437 73.206,42.437 73.206,42.677 72.965,42.677 72.725,42.677 72.485,42.917 
		72.245,42.917 72.005,42.917 72.005,42.677 72.005,42.437 72.005,42.196 71.765,41.956 72.005,41.956 72.245,41.716 72.245,41.477 
		72.485,41.477 72.725,41.236 72.725,40.997 72.965,40.997 72.965,40.757 73.206,40.757 73.206,40.997 73.446,40.997 73.446,40.757 
		73.685,40.757 73.685,40.997 73.925,40.997 74.165,40.997 74.405,40.997 74.405,40.757 74.405,40.517 74.405,40.276 74.165,40.276 
		74.165,40.036 73.925,40.036 73.925,39.796 73.685,39.796 73.446,39.557 73.685,39.557 73.685,39.316 73.446,39.316 73.446,39.077 
		73.206,39.077 72.965,39.077 72.725,38.837 72.485,38.597 72.485,38.356 72.485,38.116 72.245,37.877 72.245,37.637 72.005,37.637 
		72.005,37.397 71.765,37.397 71.526,37.397 71.526,37.157 71.286,37.157 71.286,36.917 71.286,36.677 71.045,36.677 70.805,36.437 
		70.565,36.437 70.325,36.437 70.085,36.437 70.085,36.196 70.085,35.957 70.085,35.717 70.085,35.478 70.325,35.478 70.325,35.237 
		70.565,35.237 70.565,34.997 70.325,34.997 70.325,34.757 70.565,34.757 70.805,34.757 71.045,34.757 71.045,34.517 70.805,34.757 
		70.565,34.757 70.565,34.517 70.325,34.517 70.325,34.757 70.085,34.757 70.085,34.517 70.325,34.517 70.325,34.276 70.085,34.037 
		70.085,33.797 69.845,33.797 70.085,33.797 70.085,33.558 69.845,33.558 70.085,33.317 70.085,33.077 70.085,32.837 70.085,32.597 
		70.325,32.597 70.325,32.357 70.565,32.117 70.565,31.878 70.325,31.878 70.565,32.117 70.325,32.357 70.085,32.597 69.845,32.837 
		69.845,32.597 69.606,32.597 69.366,32.837 69.125,32.837 69.125,33.077 68.885,33.077 68.885,33.317 68.885,33.558 68.645,33.558 
		68.406,33.558 68.166,33.558 67.926,33.317 67.926,33.077 67.686,32.837 67.446,32.597 67.206,32.837 66.965,32.837 66.965,33.077 
		66.725,33.077 66.965,33.317 66.965,33.558 66.725,33.797 66.725,34.037 66.725,34.276 66.486,34.276 66.486,34.517 66.486,34.757 
		66.246,34.997 66.486,35.237 66.486,34.997 66.486,35.237 66.486,35.478 66.725,35.478 66.725,35.717 66.965,35.717 66.965,35.957 
		67.206,35.957 67.206,36.196 67.446,36.196 67.446,36.437 67.686,36.437 67.686,36.677 67.686,36.917 67.926,36.917 68.166,37.157 
		68.166,37.397 67.926,37.637 67.686,37.637 67.446,37.877 67.206,37.877 66.965,37.877 66.725,37.877 66.486,37.877 66.246,38.116 
		66.006,38.116 65.766,38.116 65.766,37.877 65.766,37.637 65.526,37.397 65.526,37.157 65.526,36.917 65.526,36.677 65.526,36.437 
		65.526,36.196 65.286,36.196 65.526,35.957 65.526,35.717 65.766,35.717 65.766,35.478 65.766,35.237 65.526,35.237 65.526,34.997 
		65.286,34.997 65.045,34.997 64.805,34.997 64.805,34.757 64.566,34.757 64.326,34.757 64.326,34.517 64.326,34.276 64.086,34.276 
		63.846,34.276 63.846,34.037 63.606,34.037 63.846,34.037 63.846,33.797 64.086,33.797 63.846,33.558 63.846,33.317 63.846,33.077 
		63.606,33.077 63.606,32.837 63.846,32.837 63.846,32.597 63.846,32.357 63.846,32.117 63.846,31.878 63.606,31.638 63.606,31.397 
		63.846,31.397 64.086,31.397 64.326,31.397 64.566,31.397 64.805,31.397 65.045,31.397 65.286,31.157 65.286,30.917 65.526,30.917 
		65.526,30.677 65.286,30.677 65.286,30.438 65.526,30.438 65.526,30.197 65.526,30.438 65.766,30.197 66.006,30.197 66.006,29.958 
		66.246,29.958 66.246,29.717 66.486,29.478 66.725,29.478 66.965,29.478 67.206,29.478 67.446,29.478 67.446,29.237 67.446,28.998 
		67.446,28.757 67.446,28.518 67.446,28.277 67.446,28.518 67.206,28.518 67.206,28.757 67.206,28.998 66.965,28.998 66.725,28.998 
		66.486,28.998 66.246,28.998 66.006,28.998 66.006,29.237 65.766,29.237 65.766,29.478 65.526,29.717 65.286,29.717 65.286,29.478 
		65.045,29.478 64.805,29.478 64.566,29.478 64.566,29.237 64.326,29.237 64.326,28.998 64.086,28.998 63.846,28.998 63.606,28.998 
		63.606,28.757 63.366,28.757 63.125,28.757 63.125,28.998 63.366,28.757 63.366,28.998 63.606,28.998 63.606,29.237 63.606,29.478 
		63.366,29.478 63.125,29.478 62.886,29.478 62.886,29.237 62.646,29.478 62.646,29.237 62.407,29.237 62.167,29.237 62.407,29.237 
		62.407,29.478 62.646,29.478 62.886,29.478 63.125,29.478 63.366,29.717 63.366,29.958 63.606,29.958 63.846,29.717 64.086,29.478 
		64.086,29.717 64.086,29.958 64.326,29.958 64.566,29.958 64.805,29.958 65.045,29.958 65.045,30.197 64.805,30.197 64.805,30.438 
		64.805,30.677 64.566,30.677 64.326,30.677 64.086,30.677 63.846,30.677 63.606,30.677 63.606,30.438 63.366,30.438 63.125,30.438 
		63.125,30.677 62.886,30.677 62.886,30.917 62.646,30.917 62.646,31.157 62.886,31.157 62.886,31.397 62.646,31.397 62.407,31.638 
		62.646,31.638 62.407,31.878 62.167,32.117 61.926,32.117 61.926,32.357 61.686,32.357 61.446,32.357 61.206,32.357 60.966,32.597 
		61.206,32.837 61.446,32.837 61.446,33.077 61.446,33.317 61.446,33.558 61.206,33.558 60.966,33.558 60.726,33.558 60.726,33.797 
		60.487,33.797 60.726,34.037 60.487,34.037 60.247,34.037 60.247,34.276 60.247,34.517 60.247,34.757 60.247,34.997 60.487,34.997 
		60.726,34.997 60.966,35.237 61.206,35.237 61.206,34.997 61.446,34.997 61.446,34.757 61.686,34.757 61.686,34.997 61.446,34.997 
		61.446,35.237 61.446,35.478 61.206,35.478 60.966,35.717 61.206,35.957 60.966,36.196 60.726,36.437 60.487,36.677 60.487,36.917 
		60.247,36.917 60.487,37.157 60.247,37.157 60.006,37.157 59.766,37.157 59.526,37.157 59.286,37.157 59.286,36.917 59.046,36.917 
		58.806,36.917 58.806,37.157 58.567,37.397 58.567,37.637 58.806,37.637 58.806,37.877 59.046,37.877 59.046,38.116 59.286,38.116 
		59.286,38.356 59.526,38.356 59.526,38.597 59.766,38.597 59.766,38.837 59.526,38.837 59.526,39.077 59.286,39.077 59.286,39.316 
		59.046,39.316 58.806,39.557 58.806,39.316 58.567,39.316 58.327,39.316 58.327,39.557 58.327,39.796 58.327,40.036 58.086,40.036 
		58.327,40.036 58.567,40.036 58.806,40.036 58.806,40.276 59.046,40.036 59.286,40.276 59.526,40.276 59.766,40.036 59.766,40.276 
		60.006,40.276 60.247,40.276 60.247,40.036 60.247,39.796 60.487,39.796 60.487,40.036 60.726,40.036 60.726,40.276 60.966,40.276 
		60.966,40.036 61.206,40.036 61.446,40.276 61.686,40.276 61.686,40.517 61.926,40.517 62.167,40.517 62.407,40.517 62.407,40.757 
		62.167,40.757 62.167,40.997 61.926,40.997 61.926,41.236 61.926,41.477 61.926,41.716 62.167,41.716 62.407,41.716 62.407,41.956 
		62.167,41.956 62.167,42.196 62.167,42.437 62.407,42.437 62.646,42.437 62.407,42.437 62.407,42.677 62.646,42.677 62.886,42.677 
		62.886,42.917 63.125,42.917 63.366,42.917 63.366,43.156 63.606,43.156 63.606,43.396 63.846,43.396 63.846,43.636 63.846,43.876 
		63.846,44.116 64.086,44.116 64.086,44.356 64.086,44.597 64.086,44.837 64.086,45.076 63.846,45.076 63.606,45.076 63.366,45.076 
		63.125,45.076 62.886,45.076 62.646,45.076 62.407,45.076 62.167,45.076 61.926,45.076 61.926,44.837 61.926,44.597 62.167,44.597 
		61.926,44.356 61.686,44.116 61.446,44.116 61.206,44.116 61.206,43.876 61.206,43.636 61.206,43.396 60.966,43.396 60.726,43.156 
		60.487,42.917 60.247,42.917 60.006,42.917 59.766,42.917 59.766,42.677 59.526,42.677 59.526,42.437 59.286,42.437 59.046,42.196 
		58.806,42.196 58.806,42.437 58.567,42.437 58.567,42.196 58.327,42.196 58.086,42.437 57.846,42.437 57.606,42.437 57.606,42.677 
		57.367,42.677 57.126,42.677 57.126,42.917 56.887,42.917 56.887,43.156 56.647,43.156 56.647,42.917 56.407,42.917 56.167,43.156 
		56.167,43.396 56.167,43.636 56.167,43.876 56.407,43.876 56.167,44.116 56.407,44.116 56.167,44.116 55.926,44.356 55.686,44.597 
		55.447,44.597 55.447,44.837 55.207,44.837 54.967,44.837 54.727,44.837 54.727,45.076 54.487,45.076 54.487,45.316 54.247,45.316 
		54.006,45.556 53.766,45.556 53.527,45.796 53.287,45.796 53.047,45.796 52.807,45.796 52.567,45.796 52.327,45.796 52.086,45.796 
		51.847,45.796 51.607,45.796 51.607,45.556 51.368,45.556 51.368,45.316 51.368,45.076 51.127,45.076 51.127,44.837 50.887,44.837 
		50.647,44.837 50.407,44.837 50.167,44.837 49.927,44.597 49.687,44.597 49.448,44.597 49.448,44.356 49.208,44.356 48.967,44.356 
		48.727,44.356 48.487,44.116 48.248,44.116 48.007,44.116 47.767,44.116 47.528,44.356 47.288,44.116 47.288,44.356 47.047,44.356 
		46.807,44.356 46.567,44.116 46.328,44.116 46.087,44.116 46.087,43.876 45.848,43.876 45.848,43.636 45.607,43.636 45.368,43.396 
		45.127,43.156 44.888,42.917 44.648,42.917 44.648,42.677 44.408,42.677 44.408,42.437 44.167,42.437 44.167,42.196 44.408,41.956 
		44.408,41.716 44.408,41.477 44.408,41.236 44.408,40.997 44.408,40.757 44.408,40.517 44.648,40.517 44.648,40.276 44.888,40.036 
		45.127,40.036 45.127,39.796 45.368,39.796 45.368,39.557 45.607,39.557 45.848,39.316 45.848,39.077 46.087,39.077 46.328,38.837 
		46.567,38.597 46.567,38.356 46.807,38.356 46.807,38.116 47.047,37.877 47.288,37.877 47.528,37.877 47.767,37.877 48.007,37.877 
		48.007,37.637 48.248,37.637 48.248,37.877 48.487,37.877 48.487,37.637 48.727,37.637 48.967,37.637 49.208,37.877 49.208,37.637 
		49.448,37.637 49.448,37.397 49.448,37.157 49.448,36.917 49.448,36.677 49.208,36.677 49.208,36.437 49.448,36.437 49.448,36.677 
		49.448,36.437 49.208,36.437 49.208,36.196 49.208,35.957 49.448,35.957 49.208,35.957 48.967,35.957 48.967,36.196 48.967,36.437 
		48.727,36.437 48.727,36.677 48.487,36.677 48.487,36.437 48.248,36.437 48.007,36.196 47.767,36.196 47.528,36.196 47.288,36.196 
		47.047,36.196 46.807,36.196 46.567,36.437 46.328,36.437 46.087,36.437 45.848,36.437 45.848,36.677 45.607,36.677 45.368,36.677 
		45.127,36.677 45.127,36.917 44.888,36.917 44.648,36.917 44.408,36.917 44.167,36.917 43.928,36.917 43.688,36.917 43.448,36.917 
		43.208,36.917 43.208,36.677 42.968,36.677 42.968,36.437 42.728,36.437 42.488,36.437 42.248,36.437 42.008,36.437 41.768,36.437 
		41.768,36.196 41.528,36.196 41.288,36.196 41.048,36.196 41.048,35.957 40.808,35.957 40.568,35.957 40.328,35.717 40.088,35.717 
		39.848,35.478 39.608,35.478 39.368,35.237 39.128,35.237 39.128,34.997 39.368,34.757 39.368,34.517 39.608,34.517 39.608,34.276 
		39.608,34.037 39.608,33.797 39.848,33.797 39.848,33.558 39.848,33.317 39.848,33.077 39.848,32.837 39.848,32.597 39.848,32.357 
		39.848,32.117 40.088,32.117 40.088,31.878 40.088,31.638 40.328,31.397 40.328,31.157 40.328,30.917 40.328,30.677 40.088,30.677 
		40.088,30.438 39.848,30.438 39.608,30.438 39.848,30.438 39.848,30.197 40.088,30.197 40.328,30.197 40.568,29.958 40.808,29.958 
		41.048,29.958 41.288,29.717 41.528,29.478 41.288,29.478 41.288,29.717 41.048,29.717 41.048,29.958 40.808,29.958 40.568,29.958 
		40.568,29.717 40.328,29.958 40.088,29.958 39.848,30.197 39.608,30.197 39.608,30.438 39.368,30.438 39.368,30.677 39.128,30.677 
		39.128,30.917 38.888,31.157 38.888,31.397 38.888,31.638 38.648,31.638 38.648,31.878 38.648,32.117 38.408,32.117 38.408,32.357 
		38.408,32.597 38.408,32.837 38.648,32.837 38.408,33.077 38.168,33.317 38.168,33.077 37.928,33.077 37.688,33.077 37.448,33.077 
		37.208,33.077 37.208,32.837 36.968,32.837 36.729,32.837 36.488,32.837 36.249,32.837 36.488,32.837 36.488,32.597 36.249,32.597 
		36.249,32.357 36.008,32.357 35.769,32.357 35.769,32.117 35.528,32.117 35.769,32.117 36.008,32.117 36.249,31.878 36.249,31.638 
		36.249,31.397 36.488,31.397 36.488,31.157 36.488,30.917 36.488,30.677 36.488,30.438 36.729,30.438 36.968,30.438 36.968,30.197 
		37.208,29.958 37.208,29.717 37.208,29.478 37.448,29.237 37.448,28.998 37.208,28.998 37.208,28.757 37.208,28.518 37.208,28.277 
		36.968,28.277 36.968,28.038 37.208,28.038 37.208,27.797 37.448,27.558 37.688,27.317 37.688,27.078 37.448,27.078 37.448,26.837 
		37.208,26.598 37.448,26.358 37.448,26.118 37.688,26.118 37.688,25.878 37.688,25.638 37.448,25.638 37.448,25.398 37.208,25.158 
		37.208,24.918 36.968,24.918 36.968,24.678 36.968,24.438 36.968,24.198 36.968,23.958 36.968,24.198 36.968,24.438 36.968,24.678 
		36.729,24.678 36.968,24.678 36.968,24.918 36.968,25.158 36.968,25.398 37.208,25.638 37.208,25.878 37.448,25.878 37.448,26.118 
		37.208,26.118 37.208,26.358 37.208,26.598 37.208,26.837 37.448,26.837 37.448,27.078 37.448,27.317 37.208,27.558 37.208,27.797 
		36.968,28.038 36.968,28.277 36.968,28.518 36.968,28.757 37.208,28.757 37.208,28.998 37.208,29.237 36.968,29.478 36.968,29.717 
		36.729,29.717 36.729,29.958 36.488,29.958 36.249,29.958 36.249,30.197 36.488,30.197 36.249,30.197 36.249,29.958 36.008,29.958 
		36.008,29.717 36.008,29.958 35.769,29.958 35.528,29.958 35.289,29.958 35.048,29.958 34.809,29.958 34.329,29.717 34.088,29.717 
		34.088,29.478 33.849,29.478 33.849,29.237 33.609,28.998 33.609,28.757 33.369,28.757 33.369,28.518 33.369,28.277 33.128,28.277 
		32.889,28.038 32.649,28.038 32.409,28.038 32.168,28.038 31.929,27.797 31.689,27.797 31.449,27.797 31.209,27.797 30.969,28.038 
		30.969,27.797 30.729,27.797 30.729,27.558 30.489,27.558 30.249,27.558 30.249,27.317 30.489,27.317 30.489,27.078 30.249,26.837 
		30.249,26.598 30.009,26.358 30.009,26.118 29.769,26.118 29.769,25.878 29.529,25.638 29.289,25.638 29.049,25.398 28.809,25.398 
		28.809,25.158 28.569,25.158 28.569,24.918 28.569,24.678 28.329,24.678 28.329,24.438 28.089,24.438 27.849,24.438 28.089,24.198 
		27.849,24.198 27.849,24.438 27.609,24.198 27.609,23.958 26.889,23.718 26.649,23.718 26.409,23.718 26.169,23.718 26.169,23.958 
		25.929,23.958 25.929,24.198 25.929,24.438 25.689,24.438 25.689,24.678 25.689,24.918 25.929,24.918 25.929,25.158 25.689,25.398 
		25.689,25.638 25.449,25.878 25.209,25.878 25.209,26.118 24.969,26.118 24.729,26.118 24.489,26.358 24.25,26.358 24.009,26.358 
		23.77,26.598 23.53,26.598 23.53,26.837 23.29,26.837 23.05,26.837 22.81,26.837 22.57,26.837 22.57,27.078 22.33,27.078 
		22.089,27.078 21.85,27.078 21.61,27.078 21.37,27.078 21.13,27.078 20.89,27.078 20.65,27.078 20.41,27.078 20.17,27.078 
		19.93,27.078 19.93,26.837 19.69,26.837 19.69,26.598 19.45,26.358 19.45,26.118 19.45,25.878 19.21,25.638 18.97,25.638 
		18.73,25.638 18.73,25.398 18.49,25.398 18.49,25.158 18.25,25.158 18.01,25.158 18.01,24.918 17.77,24.918 17.53,24.678 
		17.53,24.438 17.29,24.438 17.05,24.438 17.05,24.198 16.81,24.198 16.81,23.958 16.81,23.718 16.81,23.478 16.57,23.478 
		16.33,23.238 16.09,23.238 15.85,22.998 15.61,22.998 15.37,22.998 15.13,22.998 14.89,22.998 14.65,22.998 14.41,22.998 
		14.17,22.998 14.17,22.758 14.41,22.758 14.41,22.518 14.41,22.278 14.41,22.038 14.41,21.798 14.41,21.558 14.41,21.318 
		14.17,21.318 14.41,21.078 14.17,21.078 14.17,20.838 14.17,20.598 13.93,20.598 13.93,20.358 14.17,20.358 14.41,20.118 
		14.41,20.358 14.65,20.358 14.89,20.358 14.89,20.118 15.13,20.118 15.13,19.878 15.13,19.638 15.37,19.638 15.61,19.638 
		15.61,19.398 15.85,19.398 15.85,19.158 16.09,19.158 16.09,18.918 16.09,18.678 16.33,18.678 16.33,18.438 16.33,18.198 
		16.33,17.958 16.57,17.958 16.57,17.718 16.57,17.958 16.57,17.718 16.81,17.718 17.05,17.958 17.05,17.718 16.81,17.718 
		16.81,17.479 16.81,17.238 16.57,17.238 16.57,16.999 16.33,16.999 16.57,16.999 16.57,16.758 16.57,16.519 16.81,16.519 
		17.05,16.519 17.29,16.278 17.53,16.278 17.77,16.278 18.01,16.519 18.25,16.519 18.49,16.519 18.73,16.519 18.49,16.519 
		18.25,16.519 18.01,16.519 18.01,16.278 17.77,16.278 17.53,16.278 17.29,16.278 17.05,16.278 16.81,16.519 16.57,16.519 
		16.33,16.519 16.09,16.519 15.85,16.519 15.85,16.758 15.61,16.758 15.37,16.758 15.13,16.758 14.89,16.999 14.89,17.238 
		14.65,17.238 14.65,17.479 14.41,17.479 14.41,17.238 14.17,17.238 14.17,16.999 13.93,16.999 13.93,16.758 14.17,16.758 
		14.17,16.519 14.41,16.519 14.17,16.519 13.93,16.519 14.17,16.519 14.17,16.278 14.41,16.278 14.41,16.039 14.17,16.039 
		13.93,16.039 13.93,16.278 13.69,16.278 13.69,16.039 13.45,16.039 13.69,16.039 13.69,15.798 13.69,15.559 13.45,15.559 
		13.45,15.798 13.45,16.039 13.45,16.278 13.21,16.278 13.21,16.519 13.21,16.758 12.97,16.758 12.73,16.758 12.491,16.758 
		12.491,16.999 12.491,17.238 12.491,17.479 12.25,17.479 12.25,17.718 12.011,17.718 11.771,17.718 11.531,17.479 11.531,17.238 
		11.771,17.238 11.771,16.999 11.771,16.758 11.771,16.519 12.011,16.519 12.011,16.278 12.011,16.039 12.011,16.278 11.771,16.519 
		11.771,16.758 11.531,16.999 11.531,17.238 11.291,17.238 11.291,16.999 11.051,16.999 10.811,16.999 10.571,16.758 10.571,16.999 
		10.331,16.999 10.091,16.999 9.851,16.999 9.851,16.758 10.091,16.758 10.091,16.519 10.091,16.278 10.331,16.278 10.331,16.039 
		10.571,16.039 10.811,15.798 10.811,15.559 11.051,15.318 11.291,15.318 11.291,15.079 11.531,15.079 11.531,14.838 11.771,14.838 
		12.011,14.838 12.011,14.599 11.771,14.838 11.531,14.838 11.531,15.079 11.291,15.079 11.291,15.318 11.051,15.318 10.811,15.559 
		10.811,15.798 10.571,15.798 10.571,16.039 10.331,16.039 10.331,16.278 10.091,16.278 10.091,16.519 10.091,16.758 9.851,16.758 
		9.851,16.999 9.611,16.999 9.611,17.238 9.371,17.238 9.371,17.479 9.371,17.238 9.371,16.999 9.371,16.758 9.131,16.758 
		8.891,16.519 8.891,16.278 8.891,16.039 8.891,15.798 8.651,15.798 8.651,15.559 8.411,15.559 8.411,15.318 7.931,15.079 
		7.691,15.079 7.691,15.318 7.451,15.318 7.451,15.079 7.211,15.079 6.971,15.079 6.731,15.079 6.731,15.318 6.491,15.318 
		6.491,15.559 6.251,15.559 6.251,15.798 6.011,15.798 5.771,15.798 5.531,15.798 5.531,15.559 5.291,15.559 5.291,15.318 
		5.531,15.318 5.531,15.079 5.771,15.079 5.771,14.599 5.531,14.599 5.531,14.838 5.291,14.838 5.051,14.838 5.051,15.079 
		4.811,15.079 4.571,14.838 4.331,14.838 4.331,14.599 4.091,14.599 3.851,14.358 4.091,14.358 4.091,14.119 3.851,14.119 
		3.851,13.879 3.611,13.879 3.371,13.879 3.371,14.119 3.131,14.119 2.891,13.879 3.131,13.879 2.891,13.879 2.651,13.879 
		2.412,13.879 2.171,13.879 2.171,13.639 1.932,13.879 1.691,14.119 1.691,13.639 1.932,13.639 1.691,13.399 1.932,13.399 
		2.171,13.399 1.932,13.159 1.932,12.919 1.691,12.919 1.691,12.679 1.452,12.679 1.452,12.439 1.452,12.199 1.211,11.959 
		1.211,11.719 1.211,11.479 1.211,11.239 0.972,11.239 0.972,10.999 0.972,10.759 0.972,10.519 0.972,10.279 1.211,10.279 
		1.211,10.039 1.452,10.039 1.691,10.039 1.932,10.039 1.932,9.799 2.171,9.799 2.171,9.559 2.171,9.319 1.932,9.079 2.171,8.839 
		2.171,8.599 2.171,8.359 2.412,8.359 2.412,8.119 2.412,7.879 2.651,7.879 2.891,7.879 2.891,8.119 3.131,8.119 3.371,8.359 
		3.611,8.359 3.851,8.359 3.851,8.119 4.091,7.879 4.331,7.879 4.331,8.119 4.571,8.119 4.811,8.119 5.051,7.879 5.291,7.639 
		5.291,7.399 5.531,7.399 5.531,7.159 5.771,7.159 5.771,6.919 6.011,6.679 6.251,6.679 6.491,6.679 6.731,6.679 6.731,6.439 
		6.971,6.439 6.971,6.199 6.971,5.959 6.971,5.719 6.971,5.479 6.971,5.239 7.211,5 7.211,4.759 7.211,4.52 7.451,4.279 7.211,4.04 
		7.451,4.04 7.451,3.799 7.451,4.04 7.691,4.04 7.691,3.799 7.931,3.799 8.171,3.799 8.411,3.799 8.651,3.56 8.891,3.56 
		8.891,3.319 9.131,3.319 9.371,3.319 9.611,3.319 9.851,3.319 10.091,3.319 10.331,3.08 10.571,3.08 10.811,3.08 11.051,3.08 
		11.291,3.08 11.291,3.319 11.531,3.08 11.771,3.08 11.771,3.319 12.011,3.319 12.25,3.56 12.491,3.56 12.73,3.56 12.73,3.799 
		12.97,3.799 12.97,4.04 13.21,4.04 13.45,4.279 13.69,4.279 13.93,4.279 14.17,4.279 14.41,4.279 14.41,4.52 14.65,4.52 
		14.65,4.279 14.89,4.279 14.89,4.52 15.13,4.759 15.37,4.759 15.61,4.759 15.61,4.52 15.85,4.52 15.85,4.279 16.09,4.279 
		16.09,4.04 16.33,4.04 16.33,3.799 16.57,3.799 16.81,3.56 17.05,3.56 17.29,3.319 17.53,3.319 17.77,3.319 18.01,3.08 
		18.01,2.839 18.25,2.839 18.25,2.6 18.49,2.6 18.73,2.6 18.73,2.359 18.97,2.359 19.21,2.12 19.45,2.12 19.69,2.12 19.93,2.12 
		20.17,2.12 20.41,2.12 20.41,1.879 20.41,1.64 20.41,1.399 20.65,1.16 20.89,0.92 21.13,0.92 21.13,0.68 21.37,0.92 21.61,0.92 
		21.85,0.92 22.089,0.92 22.33,0.92 22.33,1.16 22.33,1.399 22.57,1.399 22.81,1.64 22.81,1.879 23.05,1.879 23.29,2.12 23.53,2.12 
		23.53,2.359 23.77,2.359 24.009,2.359 24.25,2.12 24.489,2.12 24.489,2.359 24.729,2.359 24.969,2.359 25.209,2.359 25.449,2.6 
		25.689,2.6 25.929,2.6 26.169,2.6 26.409,2.6 26.649,2.6 26.889,2.6 27.129,2.839 27.369,2.839 27.609,3.08 27.849,3.08 
		27.849,3.319 28.089,3.319 28.329,3.319 28.569,3.56 28.569,3.799 28.809,3.799 29.049,4.04 29.049,4.279 29.289,4.279 
		29.289,4.52 29.529,4.52 29.529,4.759 29.769,4.759 29.769,5 29.529,5 29.529,5.239 29.769,5.479 29.769,5.719 29.769,5.959 
		30.009,5.959 29.769,6.199 29.769,6.439 30.009,6.679 30.249,6.679 30.489,6.679 30.489,6.919 30.729,6.919 30.729,7.159 
		30.969,7.159 31.209,7.399 31.209,7.639 31.449,7.639 31.449,7.879 31.689,7.879 31.689,8.119 31.929,8.119 32.168,8.119 
		32.168,8.359 32.409,8.359 32.409,8.599 32.649,8.599 32.649,8.839 33.609,8.599 33.609,8.359 33.609,8.119 33.849,7.879 
		33.849,7.639 34.088,7.639 34.088,7.399 34.329,7.399 34.329,7.159 34.568,7.159 34.568,6.679 34.568,6.439 34.809,6.199 
		35.048,6.199 35.528,6.199 35.769,5.959 35.769,5.719 35.769,5.479 35.769,5.239 36.008,5.239 36.008,5 35.769,4.759 36.008,4.52 
		36.008,4.279 36.249,4.04 36.249,3.799 36.249,3.56 36.488,3.56 36.488,3.319 36.729,3.319 36.968,3.319 36.968,3.08 36.968,2.839 
		36.968,2.6 37.208,2.359 37.208,2.12 37.448,2.12 37.688,2.12 37.928,2.12 38.168,2.12 38.408,2.12 38.648,2.12 38.648,2.359 
		38.888,2.359 39.128,2.6 39.128,2.839 39.368,2.839 39.608,2.6 39.848,2.6 40.088,2.839 40.328,2.839 40.568,2.839 40.808,2.839 
		41.048,2.839 41.288,3.08 41.528,3.08 41.768,2.839 42.008,2.839 42.248,2.839 42.488,2.839 42.728,3.08 42.968,3.08 42.968,3.319 
		43.208,3.319 43.208,3.56 43.448,3.56 43.688,3.56 43.688,3.319 43.688,3.08 43.688,2.839 43.928,2.839 43.928,2.6 44.408,2.359 
		44.648,2.12 44.888,1.879 45.127,2.12 45.368,2.12 45.368,2.359 45.607,2.359 45.607,2.6 45.848,2.6 45.848,2.839 46.087,2.839 
		46.328,3.08 46.567,3.08 46.567,3.319 46.807,3.319 47.047,3.319 47.288,3.56 47.528,3.799 47.767,3.799 48.007,3.799 
		48.248,3.799 48.487,3.56 48.727,3.56 48.967,3.56 49.208,3.56 49.448,3.56 49.448,3.319 49.687,3.319 49.687,3.08 49.927,3.08 
		50.167,3.08 50.407,3.08 50.407,3.319 50.647,3.319 50.887,3.319 50.887,3.56 51.127,3.799 51.368,4.04 51.607,4.279 51.607,4.52 
		51.847,4.52 52.086,4.759 52.086,5 52.327,5.239 52.567,5.239 52.567,5.479 52.807,5.479 52.807,5.719 52.807,5.959 52.807,6.199 
		53.047,6.439 53.047,6.679 53.047,6.919 52.807,7.159 52.567,7.159 52.567,7.399 52.567,7.639 52.327,7.639 52.327,7.879 
		52.327,8.119 52.327,8.359 52.086,8.599 52.086,8.839 52.086,9.079 52.086,9.319 51.847,9.319 51.847,9.559 51.847,9.799 
		51.847,10.039 51.607,10.039 51.607,10.279 51.368,10.519 51.127,10.519 51.127,10.759 51.127,10.999 51.127,11.239 50.887,11.239 
		50.887,11.479 51.127,11.479 51.127,11.719 51.368,11.719 51.607,11.719 51.368,11.959 51.368,12.199 51.368,12.439 51.127,12.439 
		51.368,12.679 51.607,12.679 51.607,12.919 51.607,13.159 51.607,13.399 51.847,13.399 52.086,13.399 52.086,13.639 52.327,13.879 
		52.567,13.879 52.807,13.879 53.047,13.879 53.047,14.119 53.287,14.119 53.527,14.119 53.527,14.358 53.287,14.358 53.287,14.599 
		53.287,14.838 53.527,14.838 53.527,15.079 53.527,15.318 53.527,15.559 53.527,15.798 53.766,15.798 53.527,16.039 53.527,16.278 
		53.527,16.519 53.527,16.758 53.766,16.758 53.766,16.999 53.766,17.238 53.766,17.479 53.766,17.718 54.006,17.718 54.247,17.958 
		54.487,18.198 54.487,18.438 54.727,18.438 54.967,18.678 55.207,18.678 55.447,18.678 55.686,18.678 55.926,18.678 56.167,18.678 
		56.407,18.438 56.407,18.198 56.647,18.198 56.887,18.438 57.126,18.438 57.367,18.198 57.367,18.438 57.846,18.438 58.086,18.438 
		58.086,18.678 58.327,18.678 58.567,18.678 58.806,18.678 59.046,18.678 59.286,18.438 59.526,18.438 59.766,18.438 59.766,18.678 
		60.006,18.918 60.006,19.158 60.247,19.158 60.247,19.398 60.487,19.398 60.487,19.638 60.726,19.638 60.966,19.638 60.966,19.878 
		60.966,20.118 61.206,20.118 61.206,20.358 61.446,20.358 61.686,20.598 61.926,20.598 62.167,20.598 62.167,20.838 62.407,20.838 
		62.407,21.078 61.926,21.078 61.686,21.318 61.446,21.558 61.206,21.558 61.206,21.798 60.966,21.798 60.966,22.038 60.726,22.278 
		60.726,22.518 60.726,22.758 60.726,22.998 60.966,22.998 60.966,23.238 61.206,23.238 61.446,23.238 61.446,22.998 61.686,22.998 
		61.926,22.998 62.167,22.998 62.407,22.998 62.646,22.998 62.646,23.238 62.886,23.238 63.125,23.238 63.366,23.238 63.606,23.238 
		63.846,23.238 64.086,23.238 64.086,23.478 64.326,23.478 64.566,23.478 64.566,23.238 64.805,23.238 65.045,22.998 65.286,22.998 
		65.286,22.758 65.526,22.758 65.766,22.758 66.006,22.758 66.006,22.518 66.246,22.518 66.246,22.278 66.486,22.278 66.486,22.038 
		66.725,22.038 66.965,22.038 67.206,22.038 67.446,22.038 67.686,22.038 67.926,21.798 68.166,21.798 68.166,22.038 68.406,22.278 
		68.406,22.518 68.645,22.518 68.885,22.758 68.885,22.998 69.125,22.998 69.366,23.238 69.606,22.998 69.845,22.998 70.085,22.998 
		70.325,23.238 70.565,23.238 70.565,23.478 70.805,23.478 71.045,23.478 71.045,23.718 71.045,23.958 71.286,23.958 71.286,24.198 
		71.526,24.198 71.765,24.198 72.005,24.438 72.245,24.438 72.485,24.438 72.725,24.438 72.965,24.438 73.206,24.438 73.446,24.438 
		73.685,24.678 73.925,24.678 74.165,24.918 74.405,24.918 74.405,25.158 74.405,25.398 74.165,25.638 74.165,25.878 74.165,26.118 
		74.405,26.118 74.645,26.118 74.645,26.358 74.645,26.598 74.885,26.837 75.125,26.837 75.365,27.078 75.365,27.317 75.605,27.558 
		75.844,27.558 75.844,27.797 76.084,27.797 76.084,28.038 75.844,28.038 75.844,28.277 75.844,28.518 75.844,28.757 75.844,28.998 
		75.844,29.237 75.844,29.478 76.084,29.478 76.084,29.717 75.844,29.717 76.084,29.958 75.844,30.197 75.844,30.438 75.844,30.677 
		75.844,30.917 75.844,31.157 76.084,31.397 76.325,31.397 76.325,31.638 76.325,31.878 76.565,32.117 76.805,32.117 77.045,32.117 
		77.045,32.357 77.285,32.357 77.525,32.597 77.764,32.597 77.764,32.357 77.764,32.117 78.004,32.117 78.004,31.878 78.245,31.878 
		78.485,31.878 78.485,31.638 78.725,31.638 78.725,31.397 78.964,31.157 79.205,31.397 79.445,31.397 79.684,31.397 79.924,31.397 
		80.165,31.157 80.405,31.157 80.645,30.917 80.884,30.917 81.125,30.917 81.364,30.917 81.364,31.157 81.604,31.157 81.844,30.917 
		82.084,30.917 82.325,30.677 82.565,30.438 82.804,30.438 83.044,30.197 83.284,30.197 83.524,30.197 83.764,30.197 84.004,30.197 
		84.245,30.197 83.524,30.677 84.245,31.157 84.484,31.397 84.724,31.638 85.684,32.597 87.124,36.677 87.124,37.397 	"/>
	<polygon fill="#9C9E9F" points="58.567,56.835 58.806,56.835 59.046,56.835 59.286,56.835 59.286,56.595 59.286,56.355 
		59.286,56.115 59.526,56.115 59.766,56.115 60.006,56.115 60.247,56.115 60.487,56.115 60.726,56.115 60.726,56.355 60.966,56.115 
		61.206,56.115 61.446,56.115 61.686,56.115 61.926,56.115 62.167,56.115 62.167,56.355 62.167,56.595 62.167,56.835 62.167,57.075 
		62.167,57.315 61.926,57.315 61.686,57.315 61.686,57.556 61.446,57.556 61.446,57.796 61.446,58.035 61.206,58.035 61.206,58.274 
		60.966,58.274 60.726,58.274 60.726,58.515 60.487,58.515 60.487,58.755 60.247,58.995 60.006,59.235 59.766,59.476 59.766,59.715 
		59.766,59.955 59.526,59.955 59.286,59.955 59.286,60.194 59.046,60.194 58.806,60.194 58.567,60.194 58.327,60.194 58.086,60.194 
		58.086,59.955 58.086,59.715 57.846,59.715 57.846,59.476 57.606,59.235 57.367,59.235 57.367,58.995 57.126,58.995 56.887,58.995 
		56.647,59.235 56.407,59.235 56.167,59.235 55.926,59.235 55.926,59.476 55.926,59.235 55.686,59.235 55.447,59.235 55.207,59.235 
		54.967,59.235 54.727,59.235 54.487,59.235 54.247,59.235 54.006,59.235 54.006,58.995 53.766,58.995 53.527,58.995 53.287,58.995 
		53.287,59.235 53.287,58.995 53.047,58.995 52.807,58.755 52.567,58.755 52.567,58.995 52.567,58.755 52.327,58.755 52.327,58.515 
		52.567,58.515 52.807,58.515 53.047,58.515 53.287,58.515 53.287,58.274 53.287,58.035 53.287,57.796 53.047,57.796 53.047,57.556 
		52.807,57.556 52.807,57.315 52.567,57.075 52.567,56.835 52.567,56.595 52.327,56.595 52.327,56.355 52.327,56.115 52.086,56.115 
		52.086,55.876 52.086,55.636 51.847,55.636 51.847,55.396 51.607,55.396 51.607,55.155 51.847,54.915 52.086,54.915 52.086,54.675 
		52.327,54.675 52.327,54.436 52.567,54.436 52.807,54.436 53.047,54.436 53.047,54.195 53.287,54.195 53.527,54.195 53.527,53.956 
		53.766,53.956 54.006,53.716 54.006,53.476 54.006,53.235 54.247,53.235 54.006,52.995 54.006,52.755 54.006,52.516 54.006,52.275 
		54.006,52.036 54.006,51.796 53.766,51.796 54.006,51.556 54.006,51.315 54.006,51.075 54.006,50.836 53.766,50.836 53.766,50.596 
		53.766,50.356 53.527,50.356 53.287,50.116 53.047,50.116 53.047,49.876 52.807,49.876 52.807,49.636 52.567,49.636 52.567,49.396 
		52.567,49.155 52.567,48.916 52.567,48.676 52.807,48.437 53.047,48.437 53.287,48.437 53.287,48.196 53.527,48.196 53.766,47.956 
		53.766,47.716 53.766,47.476 54.006,47.476 54.006,47.235 54.247,47.235 54.487,47.476 54.727,47.716 54.967,47.716 54.967,47.956 
		55.207,47.956 55.447,48.196 55.686,48.196 55.686,48.437 55.926,48.437 55.926,48.676 56.167,48.676 56.167,48.916 56.407,48.916 
		56.647,48.916 56.887,48.916 57.126,48.916 57.367,48.916 57.367,48.676 57.606,48.676 57.606,48.437 57.606,48.196 57.606,47.956 
		57.606,47.716 57.367,47.476 57.367,47.235 57.606,47.235 57.846,47.235 57.846,46.996 58.086,46.756 58.086,46.517 58.327,46.517 
		58.567,46.276 58.806,46.276 59.046,46.276 59.286,46.276 59.526,46.276 59.766,46.276 59.766,46.517 59.766,46.756 60.006,46.756 
		60.006,46.996 60.247,46.996 60.487,46.996 60.726,46.756 60.726,46.517 60.966,46.517 61.206,46.517 61.446,46.517 61.686,46.756 
		61.686,46.996 61.926,46.996 62.167,47.235 62.407,46.996 62.646,46.756 62.646,46.996 62.886,46.996 63.125,46.996 63.366,46.996 
		63.606,47.235 63.606,47.476 63.846,47.476 63.846,47.716 64.086,47.716 64.086,47.956 64.086,48.196 64.326,48.196 64.326,48.437 
		64.086,48.676 64.086,48.916 64.326,49.155 64.326,49.396 64.326,49.636 64.566,49.636 64.566,49.876 64.805,50.116 64.805,50.356 
		64.805,50.596 64.805,50.836 64.566,51.075 64.326,51.075 64.326,51.315 64.086,51.315 63.846,51.556 63.846,51.796 63.846,52.036 
		63.846,52.275 64.086,52.275 64.086,52.516 64.086,52.755 63.846,52.755 64.086,52.995 64.086,53.235 64.086,53.476 64.086,53.716 
		63.846,53.716 63.846,53.476 63.606,53.476 63.366,53.476 63.125,53.476 62.886,53.476 62.646,53.235 62.407,53.235 62.407,52.995 
		62.167,52.995 61.926,52.995 61.686,52.995 61.446,52.995 61.206,52.995 60.966,52.995 60.966,53.235 60.726,53.235 60.726,53.476 
		60.487,53.476 60.487,53.716 60.487,53.956 60.247,53.956 60.247,54.195 60.247,54.436 60.247,54.675 60.006,54.675 60.006,54.915 
		59.766,54.915 59.526,54.915 59.286,54.915 59.046,54.915 59.046,54.675 58.806,54.675 58.806,54.436 58.567,54.436 58.327,54.436 
		58.086,54.436 57.846,54.195 57.606,54.195 57.367,53.956 57.126,54.195 56.887,54.195 56.887,54.436 56.647,54.436 56.647,54.675 
		56.647,54.915 56.647,55.155 56.647,55.396 56.887,55.396 56.887,55.636 57.126,55.636 57.367,55.636 57.367,55.876 57.606,56.115 
		57.606,56.355 57.846,56.355 57.846,56.595 58.086,56.595 58.327,56.595 58.327,56.835 	"/>
</g>
</svg>
